<?xml version="1.0" encoding="UTF-8"?>
<svg id="Layer_2" data-name="Layer 2" xmlns="http://www.w3.org/2000/svg" viewBox="0 0 29.47 29.47">
  <defs>
    <style>
      .cls-1, .cls-2 {
        stroke-width: 0px;
      }

      .cls-2 {
        fill: #fff;
      }
    </style>
  </defs>
  <g id="Layer_1-2" data-name="Layer 1">
    <g>
      <circle class="cls-1" cx="14.74" cy="14.74" r="14.74"/>
      <g>
        <path class="cls-2" d="m16.29,16.55c0,.09-.02.18-.06.26v.06c-.15.3-.34.65-.58,1.07s-.51.81-.82,1.18c-.31.37-.65.69-1.02.96-.37.26-.75.4-1.16.4-.71,0-1.21-.23-1.53-.69-.26.22-.54.39-.84.51-.31.12-.63.18-.97.18-.43,0-.86-.07-1.27-.2-.41-.14-.78-.33-1.11-.59-.33-.26-.59-.57-.79-.94-.2-.37-.31-.79-.33-1.26h-.1c-.26,0-.48-.09-.65-.26-.18-.18-.26-.39-.26-.65,0-.12.05-.32.15-.58.1-.26.21-.53.32-.8.03-.08.06-.17.09-.25.03-.09.06-.17.09-.23.04-.08.07-.16.1-.24.01-.03.03-.06.04-.11.01-.05.03-.15.06-.3v.02c.05-.2.1-.41.15-.61.05-.2.15-.38.29-.53.18-.18.39-.26.65-.26.27,0,.49.1.66.31.17.2.25.42.25.65v3.71c0,.43.17.77.51,1,.34.23.72.35,1.14.35.22,0,.41-.06.58-.19.17-.13.31-.29.42-.49.11-.2.19-.41.24-.65s.08-.46.08-.68v-3.03c0-.26.09-.48.26-.65.18-.18.39-.26.65-.26.24,0,.46.09.65.26s.29.39.29.65v4.56c0,.11.01.22.03.33.02.11.06.16.13.16.12,0,.25-.07.4-.21.14-.14.29-.32.43-.52s.28-.41.41-.62c.13-.21.23-.38.29-.5.03-.05.06-.1.09-.15.03-.05.06-.1.09-.17.03-.04.05-.08.06-.13.01-.05.03-.09.06-.13.03-.05.05-.1.08-.14.2-.29.46-.43.77-.43.23,0,.45.08.65.25.2.17.31.38.31.64Z"/>
        <path class="cls-2" d="m25.98,16.47c0,.07,0,.13-.01.19,0,.06-.03.13-.07.21-.18.35-.43.79-.76,1.32s-.7.99-1.09,1.38c-.27.27-.53.49-.77.65-.24.16-.56.24-.96.24s-.7-.08-.97-.25c-.26-.17-.47-.39-.62-.66-.67.61-1.49.92-2.46.92-.54,0-1.05-.11-1.52-.33s-.88-.51-1.22-.88c-.35-.37-.62-.79-.81-1.27-.2-.48-.29-.99-.29-1.52s.1-1.03.29-1.51c.2-.47.47-.89.81-1.25.35-.36.75-.64,1.22-.84s.97-.31,1.52-.31c.35,0,.71.05,1.06.15.35.1.68.24.98.42,0-.9,0-1.77.01-2.62,0-.85.01-1.72.01-2.62,0-.26.09-.48.26-.65.18-.18.39-.26.65-.26.24,0,.46.09.65.26.19.18.29.39.29.65l-.04,9.57v.33c0,.12,0,.25.02.38s.03.24.06.33.06.13.1.13c.11,0,.2-.03.26-.09.07-.06.16-.15.26-.25,0-.01,0-.03.02-.04.24-.3.49-.64.72-1.03.24-.39.42-.7.54-.93l-.02.02s0-.03.02-.04c.1-.16.2-.32.32-.48.12-.16.32-.23.62-.23.26,0,.48.08.65.25.18.17.26.38.26.64Zm-5.68.02c0-.28-.05-.55-.15-.8-.1-.25-.24-.47-.43-.66s-.4-.34-.65-.45c-.25-.11-.52-.16-.8-.16s-.55.05-.79.16c-.24.11-.46.26-.63.45s-.32.41-.42.66c-.1.25-.15.52-.15.8s.05.56.15.81c.1.26.24.49.42.68s.39.36.63.48c.24.12.51.18.79.18s.55-.06.8-.18c.25-.12.47-.28.65-.48s.33-.42.43-.68c.1-.26.15-.53.15-.81Z"/>
      </g>
    </g>
  </g>
</svg>