<?xml version="1.0" encoding="UTF-8"?>
<svg id="Layer_2" data-name="Layer 2" xmlns="http://www.w3.org/2000/svg" viewBox="0 0 61 54">
  <defs>
    <style>
      .cls-1 {
        isolation: isolate;
        opacity: .25;
      }

      .cls-1, .cls-2, .cls-3, .cls-4, .cls-5, .cls-6, .cls-7, .cls-8, .cls-9, .cls-10, .cls-11, .cls-12, .cls-13, .cls-14, .cls-15, .cls-16 {
        stroke-width: 0px;
      }

      .cls-17 {
        opacity: .5;
      }

      .cls-3 {
        fill: #797979;
      }

      .cls-4 {
        fill: #4f4f4f;
      }

      .cls-5 {
        fill: #636363;
      }

      .cls-6 {
        fill: #646464;
      }

      .cls-7 {
        fill: #6e6e6e;
      }

      .cls-8 {
        fill: #898989;
      }

      .cls-9 {
        fill: #707070;
      }

      .cls-10 {
        fill: #c7c7c7;
      }

      .cls-11 {
        fill: #d4d4d4;
      }

      .cls-12 {
        fill: #b1b1b1;
      }

      .cls-13 {
        fill: #b5b5b5;
      }

      .cls-14 {
        fill: #8d8d8d;
      }

      .cls-15 {
        fill: #8e8e8e;
      }

      .cls-16 {
        fill: #fff;
      }
    </style>
  </defs>
  <g id="Layer_1-2" data-name="Layer 1">
    <g class="cls-17">
      <g>
        <path class="cls-8" d="m47,8v-2h-2v-2h-4v-2h-4V0h-10v2h-4v2h-4v2h-2v2h-2v41h4v-2h5v2h5v-2h6v2h5v-2h5v2h4V8h-2Z"/>
        <path class="cls-11" d="m45,8v-2h-4v-2h-4v-2h-10v2h-4v2h-4v2h-2v39h2v-2h5v2h5v-2h6v2h5v-2h5v2h2V8h-2Z"/>
        <path class="cls-16" d="m18,43h2v-1h2v1h2v2h5v-2h2v-1h2v1h2v2h5v-2h2v-1h2v1h1V8h-4v-2h-4v-2h-5v-1h-5v2h-4v2h-4v2h-1v34Z"/>
      </g>
      <path class="cls-13" d="m21,26v2h2v-2h-2Zm21,0h-1v2h2v-2h-1Z"/>
      <g>
        <path class="cls-8" d="m29,26h-2v2h2v-2Z"/>
        <path class="cls-8" d="m33,28h-4v2h6v-2h-2Z"/>
        <path class="cls-8" d="m36,26h-1v2h2v-2h-1Z"/>
      </g>
      <path class="cls-1" d="m25,52h-6v1h1v1h24v-1h1v-1h-20Z"/>
      <g>
        <path class="cls-2" d="m30,5v1h4v-1h-4Z"/>
        <path class="cls-2" d="m29,6h1v1h-1v-1Zm7.5,2.5v4h1v-4h-1Zm-10,4h1v-4h-1v4Z"/>
        <path class="cls-2" d="m27.5,7.5h1v1h-1v-1Zm8,5h1v1h-1v-1Zm0-5h1v1h-1v-1Zm-1.5-1.5h1v1h-1v-1Zm-5,8h1v1h-1v-1Zm-1.5-1.5h1v1h-1v-1Zm6.5,1.5h1v1h-1v-1Z"/>
        <path class="cls-2" d="m30,15v1h4v-1h-4Z"/>
        <g>
          <path class="cls-8" d="m32.5,10h-1v-1h2v-1h-1v-1h-1v1h-2v1h1v3h-1v1h2v1h1v-1h1v-1h-2v-1h2v-1h-1Z"/>
          <path class="cls-8" d="m33.5,11h1v1h-1v-1Zm0-2h1v1h-1v-1Z"/>
        </g>
      </g>
      <g>
        <rect class="cls-8" x="21" y="17" width="8" height="1"/>
        <rect class="cls-9" x="24" y="18" width="2" height="2"/>
        <rect class="cls-8" x="35" y="17" width="8" height="1"/>
        <rect class="cls-9" x="38" y="18" width="2" height="2"/>
        <rect class="cls-9" x="37" y="18" width="4" height="1"/>
        <rect class="cls-9" x="23" y="18" width="4" height="1"/>
      </g>
      <g>
        <path class="cls-15" d="m45,28v2h-2v2h-6v2h-10v-2h-6v-2h-2v-2h-4.5v7h.5v14h4v-2h5v2h5v-2h6v2h5v-2h5v2h4v-14h.5v-7h-4.5Z"/>
        <g>
          <path class="cls-4" d="m49.5,31h-2.5v16h-2v2h4v-14h.5v-4Zm-30.5,14h5v2h-5v-2Z"/>
          <path class="cls-4" d="m40,45h5v2h-5v-2Zm-16,2h5v2h-5v-2Z"/>
          <path class="cls-4" d="m29,45h6v2h-6v-2Z"/>
          <path class="cls-4" d="m35,47h5v2h-5v-2Zm-20,2h4v-2h-2v-16h-2.5v4h.5v14Z"/>
        </g>
        <g>
          <path class="cls-16" d="m34,39v-2h1v-1h-1v-1h-1v1h-2v-1h-1v1h-1v1h1v2h-13v2h30v-2h-13Zm-1,0h-2v-2h2v2Z"/>
          <path class="cls-16" d="m31,34h2v1h-2v-1Z"/>
        </g>
        <path class="cls-5" d="m31,39v2h2v-2h-2Zm-4,0v2h2v-2h-2Zm-8,0v2h2v-2h-2Zm20,0v2h2v-2h-2Zm4,0v2h2v-2h-2Zm-8,4v4h5v-4h-5Zm-11,0v4h5v-4h-5Zm1-2v-2h-2v2h2Zm12,0v-2h-2v2h2Z"/>
      </g>
      <g>
        <path class="cls-8" d="m56,32v-1h-2v-1h-2v-1h-1v-1h-1v-1h-1v8h1v1h2v1h4v-1h1v-4h-1Z"/>
        <path class="cls-11" d="m54,32v-1h-2v-1h-1v-1h-1v-1h-1v6h1v1h2v1h4v-4h-2Z"/>
        <path class="cls-16" d="m54,32v-1h-2v-1h-1v-1h-1v-1h-1v5h1v1h2v1h4v-3h-2Z"/>
        <path class="cls-8" d="m8,32v-1h2v-1h2v-1h1v-1h1v-1h1v8h-1v1h-2v1h-4v-1h-1v-4h1Z"/>
        <path class="cls-11" d="m10,32v-1h2v-1h1v-1h1v-1h1v6h-1v1h-2v1h-4v-4h2Z"/>
        <path class="cls-16" d="m8,32v3h4v-1h2v-1h1v-5h-1v1h-1v1h-1v1h-2v1h-2Z"/>
      </g>
      <g>
        <path class="cls-10" d="m47,16h-30v2h-2v4h2v2h30v-2h2v-4h-2v-2Z"/>
        <path class="cls-2" d="m17,18h30v4h-30v-4Z"/>
        <path class="cls-14" d="m41,18v4h2v-4h-2Z"/>
      </g>
      <g>
        <path class="cls-4" d="m49,6v2h-2v-2h-2v-2h-4v-2h-4V0h-10v2h-4v2h-4v2h-2v2h-2v-2h-4v10h2v2h2v10h2v-2h30v2h2v-10h2v-2h2V6h-4Z"/>
        <path class="cls-15" d="m45,8v-2h-4v-2h-4v-2h-10v2h-4v2h-4v2h-2v18h30V8h-2Z"/>
        <path class="cls-4" d="m27,16h-4v2h-2v4h2v2h4v-2h2v-4h-2v-2Zm14,0h-4v2h-2v4h2v2h4v-2h2v-4h-2v-2Z"/>
        <g>
          <path class="cls-16" d="m49,8h2v8h-2v-8Zm-36,0h2v8h-2v-8Zm19.5-1h1v2h-1v-2Zm-2,0h1v2h-1v-2Z"/>
          <path class="cls-16" d="m33.5,9h1v2h-1v-2Zm-2-3h1v1h-1v-1Z"/>
          <path class="cls-16" d="m29.5,10h-2v1h1v2h1v-2h2v-1h-1v-1h-1v1Zm5,1h1v2h-1v-2Z"/>
          <path class="cls-16" d="m27.5,13h1v2h-1v-2Zm8,0h1v2h-1v-2Zm-12.5,3h2v2h-2v-2Z"/>
          <path class="cls-16" d="m21,18h2v2h-2v-2Zm16-2h2v2h-2v-2Z"/>
          <path class="cls-16" d="m35,18h2v2h-2v-2Z"/>
        </g>
      </g>
      <g>
        <g>
          <path class="cls-4" d="m49,28v-1h1v1h1v1h1v1h2v1h2v1h1v4h-1v1h-4v-1h-2v-1h-2v-4h1v-3Z"/>
          <path class="cls-15" d="m50,28v1h1v1h1v5h-2v-1h-1v-3h-1v-3h2Z"/>
          <path class="cls-5" d="m52,31h2v1h2v4h-4v-5Z"/>
        </g>
        <g>
          <path class="cls-4" d="m15,28v-1h-1v1h-1v1h-1v1h-2v1h-2v1h-1v4h1v1h4v-1h2v-1h2v-4h-1v-3Z"/>
          <path class="cls-15" d="m14,28v1h-1v1h-1v5h2v-1h1v-3h1v-3h-2Z"/>
          <path class="cls-5" d="m12,31h-2v1h-2v4h4v-5Z"/>
        </g>
      </g>
      <g>
        <path class="cls-12" d="m11,31v-1h-1v-1h-1v-1H3v1h-1v1h-1v1H0v6h1v1h1v1h1v1h6v-1h1v-1h1v-1h1v-6h-1Z"/>
        <path class="cls-3" d="m0,34.1v2h12v-2s-12,0-12,0Z"/>
        <path class="cls-10" d="m0,32.1v2h12v-2H0Z"/>
        <path class="cls-7" d="m0,36.1v1h1v1h10v-1h1v-1H0Z"/>
        <path class="cls-6" d="m2,38.1v1h1v1h6v-1h1v-1H2Z"/>
        <g>
          <path class="cls-16" d="m4.6,36.1v1.2h2.8v-1.2h-2.8Z"/>
          <path class="cls-16" d="m7.4,32.1v4h1.2v-4s-1.2,0-1.2,0Zm-2.8,0h-1.2v4h1.2v-4Zm-1.7-.5h.6v-.2h.2v-.5h-.6v.2h.4v.3h-.7v-.9h.9v-.2h-.9v.2h-.2v.9h.2v.2s.1,0,.1,0Zm1.9-1.1v-.2h-.7v.2h-.2v.9h.2v.2h.7v-.2h.2v-.9h-.2Zm0,.9h-.7v-.9h.7v.9Zm4-1.1h-.2v.5h-.7v-.5h-.2v1.3h.2v-.6h.7v.6h.2s0-1.3,0-1.3Zm.2,0h.2v1.3h-.2v-1.3Zm-1.7.2h.2v.2h-.2v-.2Z"/>
          <path class="cls-16" d="m6.6,30.3v.2h-.2v.9h.2v.2h.7v-.2h.2v-.2h-.2v.2h-.7v-.9h.7v-.2h-.7Zm-1.4,0v.2h.4v1.1h.2v-1.1h.4v-.2h-1Z"/>
        </g>
      </g>
      <g>
        <path class="cls-4" d="m43,32v-2h2v-2h2v-2h8v2h2v2h2v2h2v8h-2v2h-2v2h-2v2h-8v-2h-2v-2h-2v-2h-2v-8h2Z"/>
        <path class="cls-15" d="m45,32v-2h2v-2h8v2h2v2h2v8h-2v2h-2v2h-8v-2h-2v-2h-2v-8h2Z"/>
        <path class="cls-11" d="m47,34v-2h2v-2h4v2h2v2h2v4h-2v2h-2v2h-4v-2h-2v-2h-2v-4h2Z"/>
        <path class="cls-16" d="m47,35v-1h1v-1h1v-1h1v-1h2v1h1v1h1v1h1v1h1v2h-1v1h-1v1h-1v1h-1v1h-2v-1h-1v-1h-1v-1h-1v-1h-1v-2h1Z"/>
        <g>
          <path class="cls-4" d="m52,33h-2v1h2v-1Z"/>
          <path class="cls-4" d="m49,34h1v2h2v-2h1v2h1v1h-1v2h-1v-2h-2v2h-1v-2h-1v-1h1v-2Z"/>
        </g>
      </g>
    </g>
  </g>
</svg>